; Drill file
; Format: 2.4 (00.0000)
M48
INCH
T01C0.0157
T02C0.0276
T03C0.0283
T04C0.0295
T05C0.0315
T06C0.0354
T07C0.0394
T08C0.0472
T09C0.0531
T10C0.0709
T11C0.0886
T12C0.126
T13C0.1378
T14C0.1496
%
G05
G90
T01
X002000Y013060
X007480Y015830
X008480Y015840
X009420Y015860
X013520Y015880
X014480Y015880
X015480Y015880
X014520Y017380
X013250Y019380
X022020Y020890
X023060Y018890
X030280Y020890
X030800Y027920
X030800Y032440
X029830Y032420
X030800Y034390
X034330Y032910
X038300Y032410
X039080Y032420
X039310Y033910
X039050Y027890
X038280Y020140
X038270Y019340
X046050Y018910
X046060Y019920
X047560Y019860
X046530Y017890
X045560Y016390
X048280Y011640
X049030Y011640
X049810Y011640
X050560Y011360
X052080Y011110
X053050Y014390
X053810Y014390
X056560Y015160
X057330Y013110
X057800Y010840
X058800Y010560
X059800Y010340
X056830Y008770
X061280Y006780
X065050Y011090
X064050Y013080
X067610Y011340
X068830Y011360
X069830Y011360
X070560Y011360
X071610Y013090
X072590Y011580
X074080Y011590
X074830Y011610
X073590Y015390
X072580Y015390
X069590Y023420
X069860Y024560
X069840Y025560
X069590Y026550
X069590Y027920
X067810Y028190
X068610Y030670
X068640Y031660
X068590Y032420
X069330Y033170
X070090Y035420
X070140Y036670
X069590Y038160
X069130Y039670
X067880Y041380
X066880Y040610
X066090Y039670
X065110Y038670
X062090Y038670
X062110Y040160
X061840Y036910
X061840Y035920
X062090Y034910
X062090Y034190
X062060Y033440
X061810Y032700
X062300Y030690
X062310Y029940
X061330Y029690
X061330Y030440
X061060Y026940
X061340Y026170
X054840Y025200
X054450Y023700
X052830Y023690
X052300Y020950
X053050Y017640
X054340Y027450
X053810Y028950
X053060Y033420
X052330Y033410
X052590Y035880
X052340Y037380
X053090Y038440
X057380Y039140
X054860Y043190
X054130Y044170
X054590Y045160
X054330Y046360
X052380Y047390
X053090Y048390
X053090Y049390
X053090Y050380
X054630Y051110
X057360Y052840
X054810Y055110
X052860Y054890
X052860Y055860
X052060Y053380
X054640Y058110
X055860Y057590
X057380Y058360
X058380Y058390
X058130Y060080
X060380Y060080
X062110Y059360
X064380Y059550
X065160Y061550
X065140Y062300
X065590Y063560
X069410Y064050
X069880Y063060
X069610Y061020
X069610Y060280
X068660Y060060
X069610Y059000
X069640Y058050
X068890Y057340
X070670Y059770
X072170Y063300
X073640Y062770
X074390Y062030
X074390Y065280
X076160Y067970
X076170Y069020
X080950Y072270
X080940Y073250
X080950Y074000
X080950Y075000
X080950Y076230
X080950Y077230
X080950Y078250
X080730Y079720
X082700Y079980
X084440Y082480
X084450Y083270
X084160Y084770
X084160Y085730
X085190Y085270
X085190Y087270
X087940Y086750
X087200Y084770
X086200Y080480
X085190Y077980
X085190Y076980
X085190Y075000
X087670Y077020
X089690Y078020
X090940Y078030
X091730Y079000
X091450Y080730
X090470Y080500
X093170Y081770
X094190Y081750
X094950Y084000
X092700Y083730
X092230Y086750
X091220Y088000
X091980Y088780
X093220Y089500
X095220Y089500
X096250Y089520
X097200Y089000
X098200Y088980
X099200Y088980
X099700Y086750
X099700Y086000
X101280Y086220
X102270Y086230
X103730Y086250
X104970Y084480
X103750Y082480
X106230Y082000
X107980Y082250
X110730Y082520
X112770Y082520
X113050Y080520
X110050Y080030
X109770Y086030
X109750Y086730
X110750Y086750
X111800Y087020
X112270Y086020
X113280Y086030
X115800Y085250
X115800Y087020
X115090Y088030
X117550Y088980
X117800Y090520
X117560Y092810
X115860Y092780
X115090Y094030
X115520Y095520
X116730Y095520
X114280Y095520
X113530Y095520
X111770Y096750
X110980Y096730
X112000Y100730
X112550Y101720
X115560Y103720
X116030Y105730
X118840Y106190
X120030Y107220
X119030Y108170
X117800Y108170
X118830Y111200
X119330Y111940
X119330Y112720
X121530Y112690
X122830Y113200
X122050Y111190
X122730Y110190
X121560Y109720
X120750Y109700
X122750Y108720
X124810Y108750
X124810Y107730
X125130Y105700
X127050Y105700
X126840Y107200
X128580Y106700
X128560Y108190
X126580Y111690
X126800Y112970
X126550Y113750
X126560Y114750
X126560Y115750
X124810Y118970
X124810Y119770
X123830Y119770
X121530Y120480
X122310Y122530
X123280Y125310
X119050Y120480
X114840Y120520
X113480Y119270
X112800Y119750
X112020Y119230
X110030Y117730
X109030Y118720
X108520Y115750
X107530Y115730
X106520Y116250
X107020Y114720
X107770Y113700
X107530Y112700
X107280Y111770
X106000Y110720
X105280Y110470
X105800Y113000
X105780Y114220
X103480Y113000
X100480Y111980
X100250Y109950
X098980Y110250
X098000Y110470
X098250Y111690
X101770Y108520
X102520Y108520
X103470Y108520
X105750Y107020
X106280Y105500
X106280Y104690
X106280Y103970
X106270Y102250
X104020Y103730
X103270Y104480
X102470Y103980
X104520Y105470
X108780Y105020
X109020Y107020
X110000Y108200
X109980Y109200
X109980Y112200
X109530Y115230
X111530Y116450
X113080Y116720
X114030Y116730
X114050Y115750
X114030Y114770
X114030Y117750
X116280Y124050
X107050Y121300
X106050Y119750
X104560Y119770
X103500Y121300
X104530Y122530
X101750Y121300
X097220Y121770
X096000Y121280
X097230Y120280
X097230Y119250
X094250Y121000
X088950Y115020
X087480Y110720
X085230Y110500
X085720Y108230
X085450Y106750
X083950Y106220
X084170Y108020
X082920Y109980
X079720Y110770
X079440Y109750
X078970Y107200
X079470Y105450
X079450Y104440
X083700Y103480
X085500Y105000
X087440Y104000
X088000Y098750
X088750Y098750
X089440Y098750
X090950Y098220
X091970Y098230
X092700Y098230
X092950Y097250
X091470Y096250
X090220Y096500
X088720Y096730
X087980Y096750
X086450Y097250
X087230Y094020
X088770Y092780
X091230Y094000
X094520Y092780
X095780Y094020
X096980Y092780
X099300Y092780
X098980Y095730
X098250Y095730
X099500Y097750
X100470Y097520
X102520Y097500
X103250Y097520
X104810Y094000
X108090Y092780
X109750Y090250
X110730Y090500
X109480Y088730
X108750Y088730
X107270Y088030
X105780Y088980
X108730Y086730
X101220Y082000
X100720Y081250
X100450Y083080
X098970Y084000
X098250Y084270
X097200Y081750
X096200Y079000
X094920Y077780
X095450Y075980
X095690Y073770
X093470Y071950
X092950Y068750
X092950Y068000
X088670Y068750
X087940Y067270
X086200Y063030
X086190Y061560
X084670Y060530
X083940Y061530
X083940Y064550
X085470Y058080
X089410Y057840
X092170Y054090
X093700Y055580
X089940Y053060
X086190Y050840
X086630Y048580
X085160Y048090
X078640Y047840
X076170Y050060
X076140Y051580
X073390Y051480
X073590Y050000
X073610Y048980
X069880Y049640
X067880Y048360
X068360Y045390
X070110Y045520
X065110Y045390
X062360Y046860
X061840Y045880
X061880Y044390
X058340Y044170
X052090Y042670
X044860Y042910
X038330Y039910
X034300Y040140
X037800Y045910
X038050Y051890
X039300Y054870
X039560Y058090
X038840Y058910
X038630Y060110
X036090Y064630
X036800Y065420
X034380Y066110
X032330Y062580
X029830Y060390
X028080Y064640
X028810Y065420
X026330Y066110
X022840Y066120
X020840Y065410
X020080Y064660
X018330Y066120
X015590Y064640
X016310Y061160
X016330Y058390
X014550Y055440
X006280Y058910
X012780Y067830
X014830Y070780
X021070Y067830
X022110Y070300
X030620Y067860
X038610Y068530
X040110Y069780
X041090Y069780
X042110Y069780
X043090Y069770
X044110Y069770
X045360Y069270
X047340Y070230
X049390Y070520
X050140Y071770
X049660Y073780
X047190Y075230
X048840Y077220
X050390Y076770
X052660Y076750
X052630Y075250
X053880Y074470
X053660Y073300
X054410Y073000
X055890Y074730
X055920Y076230
X055920Y077220
X055640Y078220
X053140Y079770
X051140Y078970
X051160Y081050
X051890Y082060
X053910Y083280
X054910Y083300
X056450Y082060
X052920Y084280
X052890Y085310
X052910Y086810
X050440Y085330
X048880Y086520
X050410Y089300
X048890Y090750
X045630Y088800
X045690Y093800
X042390Y092830
X043910Y098030
X043880Y101030
X042890Y102000
X040630Y105220
X040140Y111190
X043640Y117480
X040130Y118770
X047390Y122330
X047390Y114970
X047390Y110470
X051390Y110000
X051390Y108000
X053420Y111450
X056700Y111480
X057450Y110440
X055420Y114470
X054910Y115470
X053910Y114980
X052940Y116450
X057440Y117480
X058630Y116220
X059190Y119720
X060700Y119690
X062940Y119720
X063920Y121470
X063690Y122270
X062410Y116450
X065420Y115440
X067450Y116450
X069940Y113970
X070140Y111950
X070140Y107920
X067410Y105920
X067410Y104020
X065920Y101220
X066640Y100190
X066670Y098220
X066160Y096980
X065160Y096480
X063660Y096220
X063640Y095020
X062640Y094500
X065170Y092980
X065630Y091750
X064880Y090750
X067410Y089750
X067160Y088560
X071690Y087550
X076190Y089860
X079000Y091750
X075250Y093800
X073730Y093340
X072670Y093300
X070950Y093780
X068940Y093780
X072160Y096500
X072160Y097980
X069160Y098480
X064660Y100220
X063160Y099980
X062390Y100970
X063110Y101250
X062670Y102220
X062190Y103200
X063920Y102730
X062420Y098950
X059920Y097480
X058940Y095520
X055410Y095750
X054130Y097250
X052630Y095250
X051440Y093800
X053910Y100190
X053880Y101920
X056380Y101700
X056390Y102450
X056410Y103450
X058440Y102220
X058910Y100950
X058170Y099470
X056410Y100700
X055920Y099470
X051420Y102950
X047690Y103000
X054420Y105200
X065190Y112970
X071170Y116450
X079280Y116250
X078230Y122000
X080700Y124300
X079770Y125250
X080770Y127550
X082220Y122980
X083720Y123550
X085750Y123980
X086000Y119060
X087000Y129580
X084250Y131090
X092500Y130580
X102500Y116250
X103220Y116770
X098700Y105000
X096970Y102980
X095750Y104000
X095730Y106000
X093720Y107500
X093200Y105980
X092200Y109000
X090190Y109000
X094950Y097480
X096230Y088000
X095230Y087750
X095230Y086750
X100220Y078520
X099720Y077500
X100980Y073520
X101750Y072780
X100720Y069520
X101190Y063470
X098910Y062060
X098940Y061030
X100660Y059080
X098920Y058050
X099190Y056520
X103700Y056500
X106730Y058060
X111000Y058450
X115730Y057020
X117050Y058000
X116730Y059000
X116250Y060000
X115530Y060980
X115220Y062020
X119250Y062480
X116780Y066230
X117550Y066770
X116250Y067480
X115750Y066500
X114750Y066500
X113980Y067750
X113220Y066980
X114770Y069000
X120270Y070480
X121060Y069730
X120470Y072270
X123340Y071480
X124770Y070730
X124980Y070000
X124550Y067730
X127280Y070250
X128030Y070230
X130580Y071470
X131770Y069980
X132770Y069980
X133810Y069980
X135890Y070750
X138590Y070230
X138560Y067730
X140090Y067720
X141080Y067720
X142580Y067500
X143310Y067700
X144080Y067220
X145090Y067950
X147560Y069220
X148560Y069200
X149560Y068720
X150580Y068700
X149110Y066980
X148280Y065720
X147300Y065690
X146310Y064750
X145090Y063730
X145800Y062000
X146280Y060980
X146280Y059480
X145530Y058470
X145050Y057500
X146310Y056980
X146020Y054980
X145550Y054250
X145000Y055020
X143560Y056020
X141530Y055500
X141530Y052950
X144330Y052970
X146780Y054500
X149550Y056000
X151530Y053030
X154530Y053050
X151530Y048530
X148500Y047530
X147500Y048530
X151560Y044520
X153500Y045530
X153770Y043030
X153750Y042050
X153770Y041050
X153780Y040050
X150580Y038730
X148470Y033750
X145470Y031800
X139520Y031810
X133500Y031770
X130520Y033270
X129550Y036780
X129220Y039030
X132780Y038750
X138560Y038770
X136530Y043530
X135530Y048030
X132800Y050530
X134530Y052970
X136550Y052970
X133800Y056000
X133780Y056980
X134020Y058000
X134020Y058970
X134050Y060470
X131060Y061480
X130560Y059730
X131020Y058500
X131020Y057770
X128800Y057020
X130800Y055000
X130280Y054000
X129550Y052970
X127560Y052970
X126750Y054500
X123500Y052970
X121530Y052970
X120770Y049770
X123500Y049130
X125450Y048800
X123520Y046530
X122950Y045030
X121380Y046590
X119720Y045030
X118950Y040300
X118450Y039060
X117950Y037060
X117720Y035050
X123700Y036580
X123970Y033550
X123690Y030080
X123920Y028050
X125980Y030530
X130470Y028810
X130450Y026810
X129470Y022800
X133450Y022800
X134200Y024560
X134950Y024310
X135670Y024080
X139500Y022800
X145470Y022800
X146980Y023780
X151470Y022780
X146660Y015770
X146720Y012530
X142480Y009950
X141020Y010190
X139450Y009970
X137940Y009970
X133940Y012550
X133190Y003700
X130190Y000470
X125730Y000440
X122590Y000520
X118140Y000550
X114880Y000520
X113920Y006810
X116690Y007280
X119170Y012550
X119190Y016550
X119190Y022060
X118730Y028060
X111940Y026360
X111920Y025580
X110660Y025840
X109420Y025330
X109420Y026360
X109950Y028340
X111420Y028340
X111420Y029330
X111420Y027340
X109410Y030340
X109440Y032360
X111940Y031310
X109450Y036130
X106690Y034890
X105700Y033880
X104170Y035380
X104690Y040880
X104700Y042880
X103980Y044130
X104720Y045800
X104440Y046800
X104450Y047800
X103440Y047800
X102700Y048310
X102450Y046530
X102470Y045530
X105730Y047810
X106730Y049860
X106720Y050690
X105720Y053080
X110530Y053080
X115500Y052060
X117450Y052050
X118720Y055030
X117470Y057020
X126770Y062000
X126770Y063750
X128000Y063980
X128300Y065200
X129330Y065220
X131080Y065470
X132340Y065980
X133340Y066220
X134330Y066450
X135330Y066730
X137110Y067220
X137580Y065720
X138380Y065730
X139630Y065720
X141130Y066200
X142130Y066220
X141590Y064970
X141580Y059970
X139080Y058470
X137280Y060470
X149110Y063730
X149830Y064480
X150560Y065250
X153140Y065730
X154300Y062970
X158090Y066250
X159330Y066250
X160560Y066250
X160050Y070970
X161110Y071000
X162110Y071000
X157380Y076750
X157380Y080250
X161360Y085720
X158330Y088230
X161360Y090750
X161360Y095730
X161380Y101940
X161390Y106770
X155860Y104970
X155090Y104980
X152840Y104980
X148840Y107950
X146840Y107700
X146610Y106720
X144090Y105700
X142590Y107450
X144590Y110750
X148360Y109950
X148610Y110940
X148590Y112170
X150860Y116450
X153860Y115940
X153880Y117700
X153860Y118500
X153580Y119470
X154830Y119700
X154840Y118730
X158360Y115780
X161360Y116800
X163130Y123250
X157610Y123480
X157340Y126520
X159880Y130090
X153060Y130080
X153080Y128800
X149890Y128830
X149890Y127560
X149140Y125030
X149140Y122950
X147660Y122500
X145640Y123250
X143580Y120530
X142480Y121230
X141640Y119730
X140340Y121970
X142110Y126020
X140380Y126780
X134090Y121230
X130630Y120480
X129590Y118750
X131110Y118230
X132580Y117700
X131110Y116220
X131090Y112190
X134310Y109690
X136530Y107700
X136550Y106730
X136800Y105700
X138060Y106200
X138310Y107200
X133060Y101950
X133060Y100950
X134110Y099980
X134860Y100470
X134860Y099230
X134810Y097470
X136080Y096980
X137580Y097450
X137560Y096450
X137890Y095450
X136880Y094030
X135800Y095250
X135080Y095250
X133590Y092800
X135300Y091230
X136330Y090770
X137090Y090530
X138080Y090530
X140330Y088270
X138050Y086530
X136560Y086550
X134330Y087270
X132080Y084500
X130560Y082970
X128280Y083000
X127770Y083970
X125770Y084000
X122770Y084750
X122000Y084730
X122030Y080470
X123810Y080230
X125280Y080480
X123750Y077250
X128270Y078470
X128060Y074980
X135550Y076520
X138030Y077450
X139060Y074980
X140860Y075750
X141590Y075750
X142310Y075750
X143080Y075750
X143840Y075980
X144560Y075980
X145090Y073530
X148080Y073530
X146590Y079720
X145090Y081720
X143360Y081750
X142590Y081730
X141580Y081230
X140090Y082250
X139080Y082270
X138550Y080730
X141080Y076520
X144060Y086230
X146080Y086520
X151660Y088480
X146880Y095730
X146110Y095450
X145050Y095450
X143200Y095450
X142340Y097700
X141590Y100500
X145590Y100500
X146580Y100500
X146810Y102220
X145360Y102220
X147360Y098750
X147590Y097720
X146840Y097470
X146090Y097970
X145880Y097220
X155090Y100470
X156080Y099730
X148130Y119480
X150340Y121250
X144610Y118730
X141090Y117000
X136380Y117480
X126780Y119720
X124810Y110720
X121530Y106730
X120340Y103970
X120560Y102700
X121830Y100470
X123560Y096480
X121800Y095730
X123090Y092810
X124050Y092810
X125280Y091250
X128050Y091750
X129060Y091250
X130560Y090770
X131090Y092780
X129840Y092800
X127080Y094030
X128080Y095980
X129030Y096220
X129030Y098520
X131060Y102190
X131060Y103690
X133310Y098220
X117580Y099480
X116780Y098750
X116030Y100730
X117000Y081750
X117250Y079250
X107780Y072230
X108170Y069970
X107000Y067270
X106750Y063030
X110530Y047800
X106690Y044810
X094390Y048580
X094190Y047840
X093410Y047840
X092410Y048830
X093660Y044800
X093670Y036810
X090690Y037340
X090440Y035310
X092670Y033840
X091890Y032840
X092920Y030840
X094700Y030390
X095190Y029130
X095190Y027360
X095940Y025860
X094390Y024610
X094390Y023880
X095920Y021880
X096640Y021890
X097410Y020610
X098630Y020610
X098630Y019390
X099380Y019380
X097860Y019380
X098190Y021860
X098920Y023880
X099920Y023130
X100640Y023130
X101390Y023360
X100160Y024110
X100170Y024840
X099190Y025110
X102920Y022880
X104660Y021840
X104160Y019840
X103390Y019840
X102880Y018590
X104660Y019090
X106670Y022830
X106670Y024840
X108910Y017860
X106690Y014550
X105420Y014550
X102160Y014550
X095590Y015840
X094890Y013110
X093390Y017860
X093910Y018860
X092440Y019840
X091880Y018360
X090110Y018410
X088630Y015630
X087880Y016130
X082110Y013130
X084090Y010610
X084630Y004830
X073310Y004800
X066080Y002230
X073580Y028160
X076130Y028940
X074840Y033640
X074130Y036020
X079660Y035340
X083090Y034380
X084090Y033860
X084160Y031840
X082090Y031840
X084160Y028660
X087630Y027840
X088110Y026880
X088660Y028340
X090410Y027380
X090390Y026140
X091190Y029840
X087670Y030840
X095950Y033840
X083410Y039830
X067830Y052840
X065140Y054380
X064140Y055800
X058390Y056580
X054890Y059910
X051970Y064630
X052380Y065780
X050340Y066110
X049630Y067270
X049610Y068050
X048860Y066750
X044640Y065420
X043810Y064630
X042340Y066110
X041610Y073020
X043920Y076250
X044140Y078280
X043090Y079270
X045640Y082090
X047140Y083280
X048880Y082080
X053890Y069000
X053890Y067770
X058390Y067330
X060360Y068030
X061610Y068030
X063920Y068250
X060670Y070730
X061610Y075750
X071690Y079220
X069390Y065520
X061670Y062130
X048110Y059890
X047880Y059110
X047880Y058090
X044580Y054910
X044330Y052380
X046330Y051880
X030800Y051910
X030800Y045910
X023060Y045880
X023050Y051910
X023050Y033890
X023050Y032410
X022530Y027890
X008360Y036880
X006080Y070500
X002310Y070800
X001220Y087580
X004330Y088840
X006080Y087580
X006090Y091300
X013090Y088840
X014840Y087580
X014840Y091800
X021090Y088840
X022110Y087580
X022090Y091550
X028360Y087580
X029630Y087550
X033390Y086520
X026090Y080800
X030410Y099270
X030390Y109980
X022890Y111750
X020630Y110270
X022110Y117770
X020090Y119270
X022890Y121030
X023660Y121800
X024390Y122510
X027250Y123550
X028390Y124830
X030380Y119550
X022200Y124830
X022170Y126080
X018140Y123580
X016360Y122500
X015630Y121780
X014830Y121030
X014110Y122500
X010090Y123560
X008810Y124830
X008390Y122520
X007620Y121780
X006890Y121050
X004050Y119300
X002580Y120810
X002590Y121770
X002560Y122750
X001160Y120800
X006110Y117770
X013360Y117780
X012310Y110300
X004310Y110310
X057440Y122250
X072690Y135360
X077730Y099980
X077720Y099220
X078470Y099200
X083670Y094020
X083270Y092800
X089450Y074050
X090950Y074500
X130270Y048030
X130500Y047030
X130270Y046060
X141780Y047530
X144560Y038730
X151500Y031830
X160520Y033550
X160560Y044550
X160560Y055520
X154360Y071750
X160470Y021530
X159480Y016020
X153440Y009950
X153450Y008950
X155950Y002420
X151170Y000450
X146220Y000420
X141770Y000380
X136190Y000450
X125420Y009020
X125470Y016550
X099560Y001530
X047580Y027880
X045780Y032420
X046300Y034440
X047030Y034130
X047780Y033690
X038530Y006060
X109780Y135330
T02
X046780Y003550
X047850Y003550
X047850Y007550
X046780Y007550
X053800Y007870
X053800Y008870
X095010Y118280
X099010Y118280
T03
X004500Y015620
X004500Y016620
X004500Y017620
X004500Y018620
X004500Y019620
X004500Y020620
X004500Y021620
X004500Y022620
X004500Y023620
X004500Y024620
X004520Y026170
X004520Y027170
X004520Y028170
X004520Y029170
X004520Y030170
X004520Y031170
X004520Y032170
X004520Y033170
X004520Y034170
X004520Y035170
X004550Y036900
X004550Y037900
X004550Y038900
X004550Y039900
X004550Y040900
X004550Y041900
X004550Y042900
X004550Y043900
X004550Y044900
X004550Y045900
X004570Y047650
X004570Y048650
X004570Y049650
X004570Y050650
X004570Y051650
X004570Y052650
X004570Y053650
X004570Y054650
X004570Y055650
X004570Y056650
X009830Y041870
X009830Y040870
X009830Y039870
X009830Y038870
X009830Y037870
X009830Y036870
X009830Y035870
X009830Y034870
X009830Y033870
X009830Y032870
X034410Y067780
X034410Y068780
X034410Y069780
X034410Y070780
X034410Y071780
X034410Y072780
X034410Y073780
X034410Y074780
X034410Y075780
X034410Y076780
X035680Y077530
X035680Y078530
X035680Y079530
X035680Y080530
X035680Y081530
X035680Y082530
X035680Y083530
X035680Y084530
X035680Y085530
X035680Y086530
X034900Y089510
X034900Y090510
X034900Y091510
X034900Y092510
X034900Y093510
X034900Y094510
X034900Y095510
X034900Y096510
X034900Y097510
X034900Y098510
X034900Y099760
X034900Y100760
X034900Y101760
X034900Y102760
X034900Y103760
X034900Y104760
X034900Y105760
X034900Y106760
X034900Y107760
X034900Y108760
X034880Y109950
X034880Y110950
X034880Y111950
X034880Y112950
X034880Y113950
X034880Y114950
X034880Y115950
X034880Y116950
X034880Y117950
X034880Y118950
X042880Y113520
X042880Y112520
X042880Y111520
X042880Y110520
X042880Y109520
X042880Y108520
X042880Y107520
X042880Y106520
X041410Y106970
X041410Y105970
X041410Y104970
X041410Y103970
X041410Y102970
X041410Y101970
X044670Y102450
X044670Y103450
X044670Y104450
X044670Y105450
X044670Y106450
X044670Y107450
X044670Y108450
X044670Y109450
X044670Y110450
X044670Y111450
X044670Y112450
X044670Y113450
X044670Y114450
X044670Y115450
X044670Y116450
X044670Y117450
X050670Y117450
X050670Y116450
X050670Y115450
X050670Y114450
X050670Y113450
X050670Y112450
X050670Y111450
X050670Y110450
X050670Y109450
X050670Y108450
X050670Y107450
X050670Y106450
X050670Y105450
X050670Y104450
X050670Y103450
X050670Y102450
X050670Y101450
X050670Y100450
X050670Y099450
X050670Y098450
X050670Y097450
X050670Y096450
X050670Y095450
X050670Y094450
X051880Y091300
X051880Y090300
X051880Y089300
X051880Y088300
X051880Y087300
X051880Y086300
X051880Y085300
X051880Y084300
X054880Y084300
X054880Y085300
X054880Y086300
X054880Y087300
X054880Y088300
X054880Y089300
X054880Y090300
X054880Y091300
X047910Y091330
X047910Y090330
X047910Y089330
X047910Y088330
X047910Y087330
X047910Y086330
X047910Y085330
X047910Y084330
X044910Y084330
X044910Y085330
X044910Y086330
X044910Y087330
X044910Y088330
X044910Y089330
X044910Y090330
X044910Y091330
X043130Y091280
X043130Y090280
X043130Y089280
X043130Y088280
X043130Y087280
X043130Y086280
X043130Y085280
X043130Y084280
X044920Y079740
X044920Y078740
X044920Y077740
X044920Y076740
X044920Y075740
X044920Y074740
X044920Y073740
X047920Y073740
X047920Y074740
X047920Y075740
X047920Y076740
X047920Y077740
X047920Y078740
X047920Y079740
X051890Y079750
X051890Y078750
X051890Y077750
X051890Y076750
X051890Y075750
X051890Y074750
X051890Y073750
X054890Y073750
X054890Y074750
X054890Y075750
X054890Y076750
X054890Y077750
X054890Y078750
X054890Y079750
X065420Y079750
X065420Y078750
X065420Y077750
X065420Y076750
X065420Y075750
X065420Y074750
X064100Y066550
X064100Y065550
X064100Y064550
X064100Y063550
X064100Y062550
X064100Y061550
X064100Y060550
X067100Y060550
X067100Y061550
X067100Y062550
X067100Y063550
X067100Y064550
X067100Y065550
X067100Y066550
X067100Y054350
X067100Y053350
X067100Y052350
X067100Y051350
X067100Y050350
X067100Y049350
X067100Y048350
X067100Y047350
X067100Y046350
X067100Y045350
X064100Y045350
X064100Y046350
X064100Y047350
X064100Y048350
X064100Y049350
X064100Y050350
X064100Y051350
X064100Y052350
X064100Y053350
X064100Y054350
X059360Y054350
X059360Y053350
X059360Y052350
X059360Y051350
X059360Y050350
X059360Y049350
X059360Y048350
X059360Y047350
X059360Y046350
X059360Y045350
X056360Y045350
X056360Y046350
X056360Y047350
X056360Y048350
X056360Y049350
X056360Y050350
X056360Y051350
X056360Y052350
X056360Y053350
X056360Y054350
X053110Y044890
X053110Y043890
X053110Y042890
X053110Y041890
X053110Y040890
X053110Y039890
X056360Y039690
X056360Y038690
X056360Y037690
X056360Y036690
X056360Y035690
X056360Y034690
X056360Y033690
X056360Y032690
X056360Y031690
X056360Y030690
X054110Y030690
X054110Y031690
X054110Y032690
X054110Y033690
X054110Y034690
X054110Y035690
X059360Y035690
X059360Y036690
X059360Y037690
X059360Y038690
X059360Y039690
X064080Y039680
X064080Y038680
X064080Y037680
X064080Y036680
X064080Y035680
X064080Y034680
X064080Y033680
X064080Y032680
X064080Y031680
X064080Y030680
X067080Y030680
X067080Y031680
X067080Y032680
X067080Y033680
X067080Y034680
X067080Y035680
X067080Y036680
X067080Y037680
X067080Y038680
X067080Y039680
X059360Y034690
X059360Y033690
X059360Y032690
X059360Y031690
X059360Y030690
X059300Y025180
X059300Y024180
X059300Y023180
X059300Y022180
X059300Y021180
X059300Y020180
X059300Y019180
X059300Y018180
X059300Y017180
X059300Y016180
X056300Y016180
X055550Y016190
X055550Y017190
X056300Y017180
X056300Y018180
X055550Y018190
X055550Y019190
X056300Y019180
X056300Y020180
X055550Y020190
X055550Y021190
X056300Y021180
X056300Y022180
X055550Y022190
X055550Y023190
X056300Y023180
X056300Y024180
X055550Y024190
X055550Y025190
X056300Y025180
X063280Y025160
X064080Y025150
X064080Y024150
X063280Y024160
X063280Y023160
X064080Y023150
X064080Y022150
X063280Y022160
X063280Y021160
X064080Y021150
X064080Y020150
X063280Y020160
X063280Y019160
X064080Y019150
X064080Y018150
X063280Y018160
X063280Y017160
X064080Y017150
X064080Y016150
X063280Y016160
X067080Y016150
X067080Y017150
X067080Y018150
X067080Y019150
X067080Y020150
X067080Y021150
X067080Y022150
X067080Y023150
X067080Y024150
X067080Y025150
X078860Y024920
X078860Y025920
X078860Y026920
X078860Y027920
X078860Y028920
X080440Y028830
X080440Y029830
X080440Y030830
X080440Y031830
X080440Y032830
X080440Y033830
X080440Y034830
X080440Y035830
X080440Y036830
X080440Y037830
X080440Y038830
X080440Y039830
X080440Y040830
X080440Y041830
X080440Y042830
X080440Y043830
X080440Y044830
X080440Y045830
X080440Y046830
X080440Y047830
X089440Y047830
X089440Y046830
X089440Y045830
X089440Y044830
X089440Y043830
X089440Y042830
X089440Y041830
X089440Y040830
X089440Y039830
X089440Y038830
X089440Y037830
X089440Y036830
X089440Y035830
X089440Y034830
X089440Y033830
X089440Y032830
X089440Y031830
X089440Y030830
X089440Y029830
X089440Y028830
X089440Y027830
X089440Y026830
X089440Y025830
X089440Y024830
X089440Y023830
X089440Y022830
X089440Y021830
X089440Y020830
X089440Y019830
X089440Y018830
X089440Y017830
X089440Y016830
X091130Y016860
X091130Y017860
X091130Y018860
X091130Y019860
X091130Y020860
X091130Y021860
X091130Y022860
X091130Y023860
X091130Y024860
X092670Y024880
X092670Y025880
X092670Y026880
X092670Y027880
X092670Y028880
X092670Y029880
X092200Y035800
X092200Y036800
X092200Y037800
X092200Y038800
X092200Y039800
X092200Y040800
X092200Y041800
X092200Y042800
X092200Y043800
X092200Y044800
X102500Y043880
X102500Y042880
X102500Y041880
X102500Y040880
X102500Y039880
X102500Y038880
X102500Y037880
X102500Y036880
X102500Y035880
X102500Y034880
X102500Y033880
X102500Y032880
X102500Y031880
X102500Y030880
X102500Y029880
X102500Y028880
X102500Y027880
X102500Y026880
X102500Y025880
X102500Y024880
X108500Y024880
X108500Y025880
X108500Y026880
X108500Y027880
X108500Y028880
X108500Y029880
X108500Y030880
X108500Y031880
X108500Y032880
X108500Y033880
X108500Y034880
X108500Y035880
X108500Y036880
X108500Y037880
X108500Y038880
X108500Y039880
X108500Y040880
X108500Y041880
X108500Y042880
X108500Y043880
X116970Y041550
X116970Y040550
X116970Y039550
X116970Y038550
X116970Y037550
X116970Y036550
X116970Y035550
X116970Y034550
X116970Y033550
X116970Y032550
X116920Y030610
X116920Y029610
X116920Y028610
X116920Y027610
X116920Y026610
X116920Y025610
X116920Y024610
X116920Y023610
X116920Y022610
X116920Y021610
X119920Y021610
X119920Y022610
X119920Y023610
X119920Y024610
X119920Y025610
X119920Y026610
X119920Y027610
X119920Y028610
X119920Y029610
X119920Y030610
X119970Y032550
X119970Y033550
X119970Y034550
X119970Y035550
X119970Y036550
X119970Y037550
X119970Y038550
X119970Y039550
X119970Y040550
X119970Y041550
X122950Y041560
X122950Y040560
X122950Y039560
X122950Y038560
X122950Y037560
X122950Y036560
X122950Y035560
X122950Y034560
X122950Y033560
X122950Y032560
X122950Y030550
X122950Y029550
X122950Y028550
X122950Y027550
X122950Y026550
X122950Y025550
X122950Y024550
X122950Y023550
X122950Y022550
X122950Y021550
X128520Y026810
X128520Y027810
X128520Y028810
X128520Y029810
X128520Y030810
X128520Y031810
X128520Y032810
X128520Y033810
X128520Y034810
X128520Y035810
X131500Y035850
X131500Y034850
X131500Y033850
X131500Y032850
X131500Y031850
X131500Y030850
X131500Y029850
X131500Y028850
X131500Y027850
X131500Y026850
X134500Y026850
X134500Y027850
X134500Y028850
X134500Y029850
X134500Y030850
X134500Y031850
X134500Y032850
X134500Y033850
X134500Y034850
X134500Y035850
X137550Y035800
X137550Y034800
X137550Y033800
X137550Y032800
X137550Y031800
X137550Y030800
X137550Y029800
X137550Y028800
X137550Y027800
X137550Y026800
X140550Y026800
X140550Y027800
X140550Y028800
X140550Y029800
X140550Y030800
X140550Y031800
X140550Y032800
X140550Y033800
X140550Y034800
X140550Y035800
X143530Y035790
X143530Y034790
X143530Y033790
X143530Y032790
X143530Y031790
X143530Y030790
X143530Y029790
X143530Y028790
X143530Y027790
X143530Y026790
X146530Y026790
X146530Y027790
X146530Y028790
X146530Y029790
X146530Y030790
X146530Y031790
X146530Y032790
X146530Y033790
X146530Y034790
X146530Y035790
X149530Y035750
X149530Y034750
X149530Y033750
X149530Y032750
X149530Y031750
X149530Y030750
X149530Y029750
X149530Y028750
X149530Y027750
X149530Y026750
X152530Y026750
X152530Y027750
X152530Y028750
X152530Y029750
X152530Y030750
X152530Y031750
X152530Y032750
X152530Y033750
X152530Y034750
X152530Y035750
X152530Y039520
X152530Y040520
X152530Y041520
X152530Y042520
X152530Y043520
X152530Y044520
X152530Y045520
X152530Y046520
X152530Y047520
X152530Y048520
X155520Y048530
X155520Y047530
X155520Y046530
X155520Y045530
X155520Y044530
X155520Y043530
X155520Y042530
X155520Y041530
X155520Y040530
X155520Y039530
X149530Y039520
X149530Y040520
X149530Y041520
X149530Y042520
X149530Y043520
X149530Y044520
X149530Y045520
X149530Y046520
X149530Y047520
X149530Y048520
X146550Y048520
X146550Y047520
X146550Y046520
X146550Y045520
X146550Y044520
X146550Y043520
X146550Y042520
X146550Y041520
X146550Y040520
X146550Y039520
X143550Y039520
X143550Y040520
X143550Y041520
X143550Y042520
X143550Y043520
X143550Y044520
X143550Y045520
X143550Y046520
X143550Y047520
X143550Y048520
X140550Y048520
X140550Y047520
X140550Y046520
X140550Y045520
X140550Y044520
X140550Y043520
X140550Y042520
X140550Y041520
X140550Y040520
X140550Y039520
X137550Y039520
X137550Y040520
X137550Y041520
X137550Y042520
X137550Y043520
X137550Y044520
X137550Y045520
X137550Y046520
X137550Y047520
X137550Y048520
X134530Y048520
X134530Y047520
X134530Y046520
X134530Y045520
X134530Y044520
X134530Y043520
X134530Y042520
X134530Y041520
X134530Y040520
X134530Y039520
X131530Y039520
X131530Y040520
X131530Y041520
X131530Y042520
X131530Y043520
X131530Y044520
X131530Y045520
X131530Y046520
X131530Y047520
X131530Y048520
X132030Y053990
X132030Y054990
X132030Y055990
X132030Y056990
X132030Y057990
X132030Y058990
X132030Y059990
X132030Y060990
X132030Y061990
X132030Y062990
X135030Y062990
X135030Y061990
X135030Y060990
X135030Y059990
X135030Y058990
X135030Y057990
X135030Y056990
X135030Y055990
X135030Y054990
X135030Y053990
X139780Y054000
X139780Y055000
X139780Y056000
X139780Y057000
X139780Y058000
X139780Y059000
X139780Y060000
X139780Y061000
X139780Y062000
X139780Y063000
X142780Y063000
X142780Y062000
X142780Y061000
X142780Y060000
X142780Y059000
X142780Y058000
X142780Y057000
X142780Y056000
X142780Y055000
X142780Y054000
X147560Y054000
X147560Y055000
X147560Y056000
X147560Y057000
X147560Y058000
X147560Y059000
X147560Y060000
X147560Y061000
X147560Y062000
X147560Y063000
X150560Y063000
X150560Y062000
X150560Y061000
X150560Y060000
X150560Y059000
X150560Y058000
X150560Y057000
X150560Y056000
X150560Y055000
X150560Y054000
X151060Y070730
X150060Y070730
X149060Y070730
X148060Y070730
X147060Y070730
X147080Y072450
X148080Y072450
X149080Y072450
X150080Y072450
X151080Y072450
X152080Y072450
X152060Y070730
X146080Y072450
X145080Y072450
X144080Y072450
X143080Y072450
X142080Y072450
X141080Y072450
X140080Y072450
X139080Y072450
X138080Y072450
X137080Y072450
X136080Y072450
X135080Y072450
X134080Y072450
X133080Y072450
X132080Y072450
X131080Y072450
X130080Y072450
X129080Y072450
X129080Y078450
X130080Y078450
X131080Y078450
X132080Y078450
X133080Y078450
X134080Y078450
X135080Y078450
X136080Y078450
X137080Y078450
X138080Y078450
X139080Y078450
X140080Y078450
X141080Y078450
X142080Y078450
X143080Y078450
X144080Y078450
X145080Y078450
X146080Y078450
X147080Y078450
X148080Y078450
X149080Y078450
X150080Y078450
X151080Y078450
X152080Y078450
X150100Y080510
X149100Y080510
X148100Y080510
X147100Y080510
X146100Y080510
X145100Y080510
X145080Y083720
X144080Y083720
X143080Y083720
X142080Y083720
X141080Y083720
X140080Y083720
X139080Y083720
X138080Y083720
X137080Y083720
X136080Y083720
X135080Y083720
X134080Y083720
X133080Y083720
X132080Y083720
X131080Y083720
X130080Y083720
X129080Y083720
X129080Y089720
X130080Y089720
X131080Y089720
X132080Y089720
X133080Y089720
X134080Y089720
X135080Y089720
X136080Y089720
X137080Y089720
X138080Y089720
X139080Y089720
X140080Y089720
X141080Y089720
X142080Y089720
X143080Y089720
X144080Y089720
X145080Y089720
X146080Y089720
X147080Y089720
X148080Y089720
X149080Y089720
X150080Y089720
X151080Y089720
X152080Y089720
X152080Y083720
X151080Y083720
X150080Y083720
X149080Y083720
X148080Y083720
X147080Y083720
X146080Y083720
X131860Y100730
X131860Y101730
X131860Y102730
X131860Y103730
X131860Y104730
X131860Y105730
X131860Y106730
X131860Y107730
X131860Y108730
X131860Y109730
X131860Y110730
X131860Y111730
X131860Y112730
X131860Y113730
X131860Y114730
X131860Y115730
X131860Y116730
X131860Y117730
X131860Y118730
X131860Y119730
X134060Y119730
X134060Y118730
X134060Y117730
X134060Y116730
X134060Y115730
X134060Y114730
X134060Y113730
X134060Y112730
X134060Y111730
X134060Y110730
X137380Y110720
X137380Y111720
X137380Y112720
X137380Y113720
X137380Y114720
X137380Y115720
X137380Y116720
X137380Y117720
X137380Y118720
X137380Y119720
X140380Y119720
X140380Y118720
X140380Y117720
X140380Y116720
X140380Y115720
X140380Y114720
X140380Y113720
X140380Y112720
X140380Y111720
X140380Y110720
X141630Y110700
X141630Y111700
X141630Y112700
X141630Y113700
X141630Y114700
X141630Y115700
X143550Y115720
X143550Y114720
X143550Y113720
X143550Y112720
X143550Y111720
X143550Y110720
X146550Y110720
X146550Y111720
X146550Y112720
X146550Y113720
X146550Y114720
X146550Y115720
X146550Y116720
X146550Y117720
X146550Y118720
X146550Y119720
X149140Y119970
X149140Y118970
X149140Y117970
X149140Y116970
X149140Y115970
X149140Y114970
X149140Y113970
X149140Y112970
X153880Y112940
X153880Y113940
X153880Y111940
X153880Y110940
X153880Y109940
X153880Y108940
X153880Y107940
X153880Y106940
X143550Y116720
X143550Y117720
X143550Y118720
X143550Y119720
X125860Y119730
X125860Y118730
X125860Y117730
X125860Y116730
X125860Y115730
X125860Y114730
X125860Y113730
X125860Y112730
X125860Y111730
X125860Y110730
X125860Y109730
X125860Y108730
X125860Y107730
X125860Y106730
X125860Y105730
X125860Y104730
X125860Y103730
X125860Y102730
X125860Y101730
X125860Y100730
X116800Y100740
X116800Y101740
X116800Y102740
X116800Y103740
X116800Y104740
X116800Y105740
X116800Y106740
X116800Y107740
X116800Y108740
X116800Y109740
X116800Y110740
X116800Y111740
X116800Y112740
X116800Y113740
X116800Y114740
X116800Y115740
X116800Y116740
X116800Y117740
X116800Y118740
X116800Y119740
X110800Y119740
X110800Y118740
X110800Y117740
X110800Y116740
X110800Y115740
X110800Y114740
X110800Y113740
X110800Y112740
X110800Y111740
X110800Y110740
X110800Y109740
X110800Y108740
X110800Y107740
X110800Y106740
X110800Y105740
X110800Y104740
X110800Y103740
X110800Y102740
X110800Y101740
X110800Y100740
X111280Y091250
X112280Y091250
X113280Y091250
X114280Y091250
X110280Y091250
X109280Y091250
X108280Y091250
X107280Y091250
X106280Y091250
X105280Y091250
X104280Y091250
X103280Y091250
X102280Y091250
X101280Y091250
X100280Y091250
X099280Y091250
X098280Y091250
X097280Y091250
X096280Y091250
X095280Y091250
X094280Y091250
X093280Y091250
X092280Y091250
X091280Y091250
X091280Y085250
X092280Y085250
X093280Y085250
X094280Y085250
X095280Y085250
X096280Y085250
X097280Y085250
X098280Y085250
X099280Y085250
X100280Y085250
X101280Y085250
X102280Y085250
X103280Y085250
X104280Y085250
X105280Y085250
X106280Y085250
X107280Y085250
X108280Y085250
X109280Y085250
X110280Y085250
X111280Y085250
X112280Y085250
X113280Y085250
X114280Y085250
X104740Y080000
X104740Y079000
X104740Y078000
X104740Y077000
X104740Y076000
X104740Y075000
X104740Y074000
X101740Y074000
X101740Y075000
X101740Y076000
X101740Y077000
X101740Y078000
X101740Y079000
X101740Y080000
X098220Y079000
X098220Y078000
X098220Y077000
X098220Y076000
X098220Y075000
X098220Y074000
X098220Y073000
X098220Y072000
X096970Y071950
X096970Y072950
X096970Y073950
X096970Y074950
X096970Y075950
X096970Y076950
X096970Y077950
X096970Y078950
X091720Y078040
X091720Y077040
X091720Y076040
X091720Y075040
X091720Y074040
X091720Y073040
X091720Y072040
X088720Y072040
X088720Y073040
X088720Y074040
X088720Y075040
X088720Y076040
X088720Y077040
X088720Y078040
X086240Y078000
X086240Y077000
X086240Y076000
X086240Y075000
X086240Y074000
X086240Y073000
X086240Y072000
X083240Y072000
X083240Y073000
X083240Y074000
X083240Y075000
X083240Y076000
X083240Y077000
X083240Y078000
X083240Y081270
X083240Y082270
X083240Y083270
X083240Y084270
X083240Y085270
X083240Y086270
X083240Y087270
X086240Y087270
X086240Y086270
X086240Y085270
X086240Y084270
X086240Y083270
X086240Y082270
X086240Y081270
X085420Y065520
X085420Y064520
X085420Y063520
X085420Y062520
X085420Y061520
X085420Y060520
X085420Y059520
X087690Y059550
X087690Y060550
X087690Y061550
X087690Y062550
X087690Y063550
X087690Y064550
X087690Y065550
X082420Y065520
X082420Y064520
X082420Y063520
X082420Y062520
X082420Y061520
X082420Y060520
X082420Y059520
X087690Y058550
X080440Y027830
X080440Y026830
X080440Y025830
X080440Y024830
X080440Y023830
X080440Y022830
X080440Y021830
X080440Y020830
X080440Y019830
X080440Y018830
X080440Y017830
X080440Y016830
X078860Y019920
X078860Y020920
X078860Y021920
X078860Y022920
X078860Y023920
X092670Y023880
X092670Y022880
X092670Y021880
X092670Y020880
X091130Y015860
X061770Y006000
X060770Y006000
X059770Y006000
X058770Y006000
X057770Y006000
X056770Y006000
X055770Y006000
X054770Y006000
X053770Y006000
X053770Y003000
X054770Y003000
X055770Y003000
X056770Y003000
X057770Y003000
X058770Y003000
X059770Y003000
X060770Y003000
X061770Y003000
X124970Y053990
X124970Y054990
X124970Y055990
X124970Y056990
X124970Y057990
X124970Y058990
X124970Y059990
X124970Y060990
X124970Y061990
X124970Y062990
X127970Y062990
X127970Y061990
X127970Y060990
X127970Y059990
X127970Y058990
X127970Y057990
X127970Y056990
X127970Y055990
X127970Y054990
X127970Y053990
X150220Y014480
X150220Y013480
X150220Y012480
X150220Y011480
X150220Y010480
X150220Y009480
X150220Y008480
X150220Y007480
X150220Y006480
X150220Y005480
X157170Y005450
X157170Y006450
X157170Y007450
X157170Y008450
X157170Y009450
X157170Y010450
X157170Y011450
X157170Y012450
X158950Y012500
X158950Y011500
X158950Y010500
X158950Y009500
X158950Y008500
X158950Y007500
X097700Y102970
X097700Y103970
X097700Y104970
X097700Y105970
X097700Y106970
X097700Y107970
X097700Y108970
X094700Y108970
X094700Y107970
X094700Y106970
X094700Y105970
X094700Y104970
X094700Y103970
X094700Y102970
X091190Y103000
X091190Y104000
X091190Y105000
X091190Y106000
X091190Y107000
X091190Y108000
X091190Y109000
X088190Y109000
X088190Y108000
X088190Y107000
X088190Y106000
X088190Y105000
X088190Y104000
X088190Y103000
X082970Y103020
X082970Y104020
X082970Y105020
X082970Y106020
X082970Y107020
X082970Y108020
X073920Y107950
X073920Y108950
X073920Y109950
X073920Y110950
X072160Y111440
X072160Y110440
X072160Y112440
X072160Y113440
X072160Y114440
X072160Y115440
X072160Y116440
X069160Y116440
X069160Y115440
X069160Y114440
X069160Y113440
X069160Y112440
X069160Y111440
X069160Y110440
X069170Y107910
X069170Y106910
X069170Y105910
X069170Y104910
X069170Y103910
X069170Y102910
X069170Y101910
X072170Y101910
X072170Y102910
X072170Y103910
X072170Y104910
X072170Y105910
X072170Y106910
X072170Y107910
X073920Y106950
X073920Y105950
X073920Y104950
X073920Y103950
X073920Y102950
X073920Y101950
X066440Y110430
X066440Y111430
X066440Y112430
X066440Y113430
X066440Y114430
X066440Y115430
X066440Y116430
X063440Y116430
X063440Y115430
X063440Y114430
X063440Y113430
X063440Y112430
X063440Y111430
X063440Y110430
X044670Y101450
X044670Y100450
X044670Y099450
X044670Y098450
X044670Y097450
X044670Y096450
X044670Y095450
X044670Y094450
X041410Y107970
X041410Y108970
X028900Y086310
X028900Y085310
X028900Y084310
X028900Y083310
X028900Y082310
X028900Y081310
X028900Y080310
X028900Y079310
X028900Y078310
X028900Y077310
T04
X152200Y005480
X152200Y006480
X152200Y007480
X152200Y008480
X152200Y009480
X152200Y010480
X152200Y011480
X152200Y012480
X155200Y012480
X155200Y011480
X155200Y010480
X155200Y009480
X155200Y008480
X155200Y007480
X155200Y006480
X155200Y005480
T05
X007740Y006580
X007740Y008580
X007740Y010580
X008530Y016820
X010530Y016820
X011590Y016860
X011580Y017880
X011560Y018880
X011550Y019890
X011530Y020890
X011550Y021910
X011530Y022890
X011530Y023880
X011560Y024890
X011560Y025940
X011560Y026910
X010320Y026430
X010320Y027410
X010320Y028380
X010320Y029380
X010320Y030410
X011530Y029940
X011560Y030920
X011560Y031910
X011590Y032910
X011580Y033910
X011580Y034910
X011590Y035910
X011580Y036910
X011560Y037910
X011550Y038910
X013550Y038910
X013560Y037910
X013580Y036910
X013590Y035910
X013580Y034910
X013580Y033910
X013590Y032910
X013560Y031910
X013560Y030920
X013530Y029940
X013560Y028940
X015560Y028940
X015530Y029940
X015560Y030920
X015560Y031910
X015590Y032910
X015580Y033910
X015580Y034910
X015590Y035910
X015580Y036910
X015560Y037910
X015550Y038910
X015560Y040920
X015560Y041920
X015560Y042920
X015560Y043890
X015560Y044920
X015560Y045880
X015560Y046920
X015560Y047910
X015560Y048910
X015560Y049910
X015560Y050910
X015560Y051910
X015560Y052920
X015560Y053910
X015560Y054890
X015560Y055920
X015580Y056910
X015560Y057890
X015560Y058880
X013560Y058880
X013560Y057890
X011560Y057890
X011560Y058880
X011580Y056910
X011560Y055920
X011560Y054890
X011560Y053910
X011560Y052920
X011560Y051910
X011560Y050910
X011560Y049910
X011560Y048910
X011560Y047910
X011560Y046920
X011560Y045880
X011560Y044920
X011560Y043890
X011560Y042920
X011560Y041920
X011560Y040920
X013560Y040920
X013560Y041920
X013560Y042920
X013560Y043890
X013560Y044920
X013560Y045880
X013560Y046920
X013560Y047910
X013560Y048910
X013560Y049910
X013560Y050910
X013560Y051910
X013560Y052920
X013560Y053910
X010320Y051410
X010320Y050430
X010320Y049410
X010320Y048410
X010320Y047380
X010320Y046400
X008320Y046400
X008320Y047380
X008320Y048410
X008320Y049410
X008320Y050430
X008320Y051410
X006320Y051410
X006320Y050430
X006320Y049410
X006320Y048410
X006320Y047380
X006320Y046400
X006320Y030410
X006320Y029380
X006320Y028380
X006320Y027410
X006320Y026430
X006300Y025380
X006300Y024380
X006280Y023380
X008280Y023380
X008300Y024380
X008300Y025380
X008320Y026430
X008320Y027410
X008320Y028380
X008320Y029380
X008320Y030410
X011560Y028940
X013560Y026910
X013560Y025940
X013560Y024890
X013530Y023880
X013530Y022890
X013550Y021910
X013530Y020890
X015530Y020890
X015550Y019890
X015560Y018880
X015580Y017880
X015590Y016860
X015550Y021910
X015530Y022890
X015530Y023880
X015560Y024890
X015560Y025940
X015560Y026910
X010300Y025380
X010300Y024380
X010280Y023380
X006530Y016820
X041270Y006530
X041270Y005530
X041270Y004530
X042780Y003580
X043800Y003580
X044780Y003580
X045780Y003560
X048810Y003550
X049800Y003560
X049800Y005560
X049800Y007560
X048810Y007550
X045780Y007560
X044780Y007580
X043800Y007580
X042780Y007580
X065060Y009080
X067060Y009080
X067050Y007280
X067060Y006020
X069050Y007280
X071050Y007280
X071060Y006020
X076110Y013190
X076110Y015190
X077360Y027920
X077360Y029920
X077360Y031920
X078120Y034410
X076130Y034410
X067060Y027940
X065060Y027940
X063060Y027940
X059340Y027940
X057340Y027940
X055340Y027940
X055340Y041890
X057340Y041890
X059340Y041890
X063130Y041890
X065130Y041890
X067130Y041890
X067170Y056580
X065170Y056580
X063170Y056580
X059340Y056580
X057340Y056580
X055340Y056580
X046330Y054920
X046380Y061800
X046380Y063800
X038110Y063810
X038110Y061810
X038060Y054910
X030330Y054890
X030310Y061830
X030310Y063830
X030860Y068800
X030860Y069780
X030880Y070780
X030840Y071800
X030830Y072800
X030830Y073810
X030830Y074780
X030830Y075780
X028830Y075780
X028830Y074780
X028830Y073810
X028830Y072800
X028840Y071800
X028880Y070780
X028860Y069780
X028860Y068800
X032860Y068800
X032860Y069780
X032880Y070780
X032840Y071800
X032830Y072800
X032830Y073810
X032830Y074780
X032830Y075780
X032390Y077800
X032390Y078780
X032380Y079770
X032360Y080780
X032360Y081770
X032360Y082780
X032360Y083780
X032360Y084770
X032360Y085780
X032340Y086780
X032340Y088780
X031340Y089800
X031340Y090810
X031340Y091800
X031340Y092780
X031340Y093800
X031340Y094810
X031340Y095780
X031340Y096800
X031340Y097800
X031340Y098770
X031340Y099780
X031340Y100780
X031340Y101780
X031340Y102770
X031340Y103770
X031340Y104780
X031340Y105750
X031340Y106770
X031340Y107770
X031340Y108770
X029340Y108770
X029340Y107770
X029340Y106770
X029340Y105750
X029340Y104780
X029340Y103770
X029340Y102770
X029340Y101780
X029340Y100780
X029340Y099780
X029340Y098770
X029340Y097800
X029340Y096800
X029340Y095780
X029340Y094810
X029340Y093800
X029340Y092780
X029340Y091800
X029340Y090810
X029340Y089800
X033340Y089800
X033340Y090810
X033340Y091800
X033340Y092780
X033340Y093800
X033340Y094810
X033340Y095780
X033340Y096800
X033340Y097800
X033340Y098770
X033340Y099780
X033340Y100780
X033340Y101780
X033340Y102770
X033340Y103770
X033340Y104780
X033340Y105750
X033340Y106770
X033340Y107770
X033340Y108770
X033340Y111720
X033340Y112730
X033340Y113720
X033340Y114750
X033340Y115750
X033360Y116750
X033380Y117770
X033380Y118770
X032910Y120520
X032910Y121520
X032910Y122520
X030910Y122520
X030910Y121520
X030910Y120520
X031380Y118770
X031380Y117770
X031360Y116750
X031340Y115750
X031340Y114750
X031340Y113720
X031340Y112730
X031340Y111720
X029340Y111720
X029340Y112730
X029340Y113720
X029340Y114750
X029340Y115750
X029360Y116750
X029380Y117770
X029380Y118770
X034910Y120520
X034910Y121520
X034910Y122520
X035970Y123550
X037970Y123550
X034910Y125780
X032910Y125780
X030910Y125780
X015080Y126050
X015080Y128050
X042110Y099050
X043170Y099050
X043170Y095050
X042110Y095050
X049610Y091300
X049610Y089300
X049610Y087300
X056390Y087270
X056390Y089270
X056390Y091270
X055390Y094520
X053380Y094480
X052140Y094470
X052140Y096470
X053380Y096480
X053380Y098480
X052140Y098470
X055390Y098520
X059640Y098470
X059640Y096470
X059640Y094470
X063410Y101770
X063420Y103970
X062190Y103970
X062190Y105970
X063420Y105970
X064480Y105940
X064480Y106940
X065410Y107980
X066360Y107980
X064940Y109480
X063420Y107970
X062190Y107970
X059610Y108000
X059630Y109520
X059630Y111520
X057440Y112480
X055920Y112470
X054420Y112450
X052910Y112450
X052910Y108450
X054420Y108450
X055920Y108470
X057440Y108480
X059610Y106000
X064480Y104940
X065410Y103980
X066360Y103980
X067410Y101770
X076860Y102740
X076860Y103740
X076860Y104740
X076860Y105740
X076860Y106740
X076860Y107740
X076860Y108740
X076860Y109740
X076860Y110740
X076860Y111740
X076860Y112740
X076860Y113740
X076860Y114740
X076860Y115740
X076860Y116740
X077860Y116740
X077860Y115740
X077860Y114740
X077860Y113740
X077860Y112740
X077860Y111740
X077860Y110740
X077860Y109740
X077860Y108740
X077860Y107740
X077860Y106740
X077860Y105740
X077860Y104740
X077860Y103740
X077860Y102740
X079230Y099720
X081770Y103030
X081770Y107030
X081970Y109470
X081970Y111470
X081950Y113000
X080950Y113020
X082980Y113000
X083980Y113000
X084970Y113020
X085920Y113020
X086950Y112980
X087970Y113000
X088980Y113000
X089970Y113020
X090950Y113000
X091950Y113020
X092980Y113020
X094000Y113000
X094970Y113020
X096000Y113020
X097000Y113000
X098220Y112970
X099230Y112950
X100230Y112980
X100230Y114980
X100230Y116980
X099230Y116950
X098220Y116970
X097000Y117000
X096000Y117020
X094970Y117020
X094000Y117000
X092980Y117020
X091950Y117020
X090950Y117000
X089970Y117020
X088980Y117000
X087970Y117000
X086950Y116980
X085920Y117020
X084970Y117020
X083980Y117000
X082980Y117000
X081950Y117000
X080950Y117020
X079730Y118720
X077860Y118740
X076860Y118740
X076860Y117740
X077860Y117740
X079730Y114720
X081950Y115000
X082980Y115000
X083980Y115000
X084970Y115020
X087970Y115000
X089970Y115020
X092980Y115020
X094000Y115000
X094970Y115020
X094480Y111470
X092480Y111470
X090480Y111470
X089500Y111480
X088500Y111480
X087500Y111480
X086470Y109970
X086470Y107970
X086470Y105970
X084220Y109480
X084220Y111480
X084500Y119250
X084500Y120480
X084520Y121810
X084520Y123020
X084200Y125060
X083200Y125060
X082170Y125030
X079980Y126090
X078950Y125500
X078950Y123500
X076080Y123810
X076080Y124810
X075080Y124810
X075080Y123810
X074080Y123810
X074080Y124810
X073080Y124810
X073080Y123810
X072080Y123810
X072080Y124810
X071080Y124810
X071080Y123810
X070080Y123810
X070080Y124810
X069080Y124810
X069080Y123810
X068080Y123810
X068080Y124810
X067080Y124810
X067080Y123810
X066080Y123810
X066080Y124810
X065080Y124810
X065080Y123810
X064080Y123810
X064080Y124810
X062420Y126080
X062420Y128080
X064200Y128050
X064200Y129050
X064200Y130050
X065690Y130050
X065690Y129050
X065690Y128050
X067200Y128050
X067200Y129050
X067200Y130050
X068720Y130050
X068720Y129050
X068720Y128050
X070200Y128050
X070200Y129050
X070200Y130050
X071670Y130050
X071670Y129050
X071670Y128050
X073170Y128050
X073170Y129050
X073170Y130050
X074720Y130060
X074720Y129060
X074720Y128060
X076190Y128050
X076190Y129050
X076190Y130050
X077700Y130060
X077700Y129060
X077700Y128060
X077020Y126810
X079980Y128090
X079980Y130090
X082170Y129030
X083200Y129060
X084200Y129060
X085980Y128330
X085980Y130330
X088000Y129080
X088950Y129080
X089970Y129110
X089970Y125110
X088950Y125080
X088000Y125080
X088520Y123020
X088520Y121810
X088500Y120480
X088500Y119250
X090520Y119230
X091520Y119230
X092520Y119230
X092720Y121000
X092720Y123000
X090480Y123020
X090480Y121020
X095020Y121270
X095030Y120270
X095020Y119250
X099020Y119250
X099030Y120270
X099020Y121270
X099520Y122500
X101520Y122500
X103520Y122500
X102470Y119720
X102470Y118720
X102470Y117720
X102480Y114750
X102480Y113750
X102480Y112750
X102480Y107020
X101500Y107020
X100450Y107000
X099450Y106970
X099450Y104970
X099450Y102970
X100450Y103000
X101500Y103020
X102480Y103020
X103480Y103030
X104480Y103050
X104480Y107050
X103480Y107030
X101690Y097500
X097690Y097500
X093200Y104970
X093200Y108970
X084690Y098000
X084690Y094000
X085300Y091230
X085300Y089520
X087300Y089520
X087300Y091230
X083300Y091230
X083300Y089520
X081200Y092060
X081200Y094060
X079220Y093000
X075220Y093000
X073690Y088730
X071690Y088730
X069630Y087750
X069630Y089750
X069630Y085750
X069630Y084020
X068160Y083230
X069630Y082020
X068160Y081230
X069630Y080020
X068160Y079230
X069630Y077770
X068170Y076480
X069630Y075770
X068170Y074480
X069630Y073770
X068170Y072480
X070670Y070000
X072670Y070000
X074670Y070000
X074390Y068310
X076160Y065810
X074390Y064310
X068610Y064550
X068610Y066550
X068610Y062550
X071670Y073800
X073670Y073800
X073690Y077480
X071690Y077480
X071690Y081300
X073690Y081300
X073690Y084970
X071690Y084970
X088720Y085300
X088720Y084300
X088720Y083300
X090200Y083250
X088450Y081770
X088450Y080770
X087480Y078000
X087480Y076000
X087480Y074000
X087940Y070270
X085940Y070270
X085440Y067270
X086950Y067270
X088950Y067270
X090950Y067270
X089940Y065510
X092940Y065510
X095170Y063980
X097230Y064020
X097230Y065020
X098230Y065020
X099230Y065020
X100230Y065020
X101230Y065020
X102230Y065020
X103230Y065020
X104230Y065020
X105230Y065020
X105230Y066020
X104230Y066020
X103230Y066020
X102230Y066020
X101230Y066020
X100230Y066020
X099230Y066020
X098230Y066020
X098230Y064020
X098230Y063020
X097230Y063020
X097230Y062020
X097230Y061020
X097230Y060020
X097230Y059020
X097230Y058020
X097230Y057020
X098230Y057020
X098230Y058020
X098230Y059020
X098230Y060020
X098230Y061020
X098230Y062020
X095170Y059980
X092940Y059510
X089940Y059510
X089420Y055580
X089420Y054560
X087450Y052860
X087450Y050860
X085420Y054560
X085420Y055580
X093920Y053770
X097230Y055020
X097230Y056020
X098230Y056020
X098230Y055020
X099230Y055020
X100230Y055020
X101230Y055020
X102230Y055020
X103230Y055020
X104230Y055020
X105230Y055020
X106230Y055020
X107230Y055020
X108230Y055020
X108230Y056020
X108230Y057020
X108230Y058020
X108230Y059020
X108230Y060020
X108230Y061020
X108230Y062020
X108230Y063020
X108230Y064020
X108230Y065020
X108230Y066020
X107230Y066020
X107230Y065020
X106230Y065020
X106230Y066020
X109230Y065020
X109230Y064020
X109230Y063020
X109230Y062020
X109230Y061020
X109230Y060020
X109230Y059020
X109230Y058020
X109230Y057020
X109230Y056020
X109230Y055020
X108230Y054020
X107230Y054020
X106230Y054020
X105230Y054020
X104230Y054020
X103230Y054020
X102230Y054020
X101230Y054020
X100230Y054020
X099230Y054020
X098230Y054020
X093920Y049770
X093690Y041860
X095200Y041840
X095200Y037840
X093690Y037860
X096420Y020610
X096420Y016610
X099590Y012880
X099590Y010880
X103860Y012830
X105410Y012630
X106670Y012610
X108160Y012640
X109660Y012610
X111190Y012610
X111190Y010610
X111190Y008610
X109660Y008610
X108160Y008640
X106670Y008610
X105410Y008630
X103860Y008830
X105410Y010620
X106670Y010610
X114880Y008080
X116200Y008090
X117420Y008080
X114880Y006080
X114880Y004080
X116200Y004090
X117420Y004080
X120950Y006000
X120950Y007000
X120950Y008000
X122420Y008020
X122420Y007020
X122420Y006020
X123940Y006030
X123940Y007030
X123940Y008030
X125440Y008030
X125440Y007030
X125440Y006030
X126970Y006030
X126970Y007030
X126970Y008030
X128470Y008000
X128470Y007000
X128470Y006000
X129920Y005980
X129920Y006980
X129920Y007980
X136410Y007970
X136410Y006970
X136410Y005970
X137970Y005970
X137970Y006970
X137970Y007970
X139450Y007950
X139450Y006950
X139450Y005950
X140980Y005950
X140980Y006950
X140980Y007950
X142500Y007950
X142500Y006950
X142500Y005950
X143970Y005950
X143970Y006950
X143970Y007950
X145480Y007970
X145480Y006970
X145480Y005970
X152020Y014500
X152020Y016030
X154020Y014500
X156020Y014500
X156020Y016030
X153530Y037830
X151530Y037830
X149530Y037830
X147520Y037810
X145520Y037810
X143520Y037810
X141550Y037770
X139550Y037770
X137550Y037770
X135530Y037770
X133530Y037770
X131530Y037770
X121450Y037520
X121450Y039520
X121450Y041520
X117250Y046590
X117250Y050590
X131520Y050530
X133520Y050530
X135520Y050530
X137550Y050550
X139550Y050550
X141550Y050550
X143520Y050580
X145520Y050580
X147520Y050580
X149530Y050580
X151530Y050580
X153060Y051830
X153530Y050580
X153060Y053830
X152110Y058980
X152110Y060980
X152110Y062980
X155850Y069720
X156850Y069690
X157830Y069700
X158800Y069700
X158800Y071700
X157830Y071700
X156850Y071690
X155850Y071720
X155850Y073720
X156850Y073690
X157830Y073700
X158800Y073700
X144830Y070760
X143830Y070760
X142830Y070760
X141640Y070770
X139640Y070770
X137640Y070770
X136550Y063000
X136550Y061000
X136550Y059000
X129520Y059000
X129520Y061000
X129520Y063000
X125020Y076450
X125030Y082470
X125280Y087250
X125280Y089250
X123080Y089250
X123080Y091250
X122030Y091270
X122030Y087270
X123080Y087250
X113800Y082520
X111800Y082520
X109800Y082520
X107270Y080020
X107270Y078020
X107270Y076020
X110030Y074230
X110030Y072230
X110030Y070230
X110950Y068230
X108950Y068230
X093440Y069550
X089940Y070270
X093440Y073550
X093440Y075020
X094920Y075020
X094920Y077020
X093440Y077020
X093440Y079020
X094920Y079020
X095520Y080770
X095520Y081770
X094200Y083250
X092450Y081770
X092450Y080770
X099520Y080770
X099520Y081770
X110780Y099020
X112780Y099020
X114780Y099020
X125840Y098980
X127840Y098980
X129840Y098980
X137330Y102750
X137330Y106750
X141610Y102750
X141610Y098750
X149140Y097730
X151140Y097730
X153140Y097730
X153360Y102980
X155360Y102980
X155590Y111910
X155590Y113910
X155590Y115910
X154360Y120970
X154360Y122970
X154840Y125770
X153610Y125770
X151610Y125770
X149610Y125770
X148590Y125980
X146590Y125980
X144590Y125980
X143390Y126000
X143360Y128050
X143360Y129050
X143360Y130050
X142130Y130080
X140360Y130020
X140360Y129020
X140360Y128020
X138610Y128000
X138610Y129000
X138610Y130000
X137380Y130000
X137380Y129000
X137380Y128000
X136130Y128000
X136130Y129000
X136130Y130000
X134860Y130000
X134860Y129000
X134860Y128000
X133590Y128000
X133590Y129000
X133590Y130000
X132340Y130000
X132340Y129000
X132340Y128000
X131090Y128000
X131090Y129000
X131090Y130000
X129860Y130000
X129860Y129000
X129860Y128000
X128560Y128000
X128560Y129000
X128560Y130000
X127340Y130000
X127340Y129000
X127340Y128000
X126090Y128000
X126090Y129000
X126090Y130000
X124810Y130000
X124810Y129000
X124810Y128000
X123580Y128000
X123580Y129000
X123580Y130000
X122300Y130020
X122300Y129020
X122300Y128020
X121020Y128020
X121020Y129020
X121020Y130020
X119000Y128000
X117330Y128050
X117330Y129050
X117330Y130050
X116060Y130020
X116060Y129020
X116060Y128020
X114830Y128020
X114830Y129020
X114830Y130020
X113580Y130030
X113580Y129030
X113580Y128030
X112310Y128030
X112310Y129030
X112310Y130030
X111080Y130050
X111080Y129050
X111080Y128050
X109840Y128050
X109840Y129050
X109840Y130050
X108580Y130060
X108580Y129060
X108580Y128060
X107330Y128080
X107330Y129080
X107330Y130080
X106050Y130080
X106050Y129080
X106050Y128080
X104800Y128080
X104800Y129080
X104800Y130080
X103550Y130060
X103550Y129060
X103550Y128060
X102310Y128080
X102310Y129080
X102310Y130080
X101050Y130090
X101050Y129090
X101050Y128090
X099770Y128090
X099770Y129090
X099770Y130090
X098500Y130090
X098500Y129090
X098500Y128090
X097250Y128080
X097250Y129080
X097250Y130080
X095980Y130080
X095980Y129080
X095980Y128080
X107030Y122530
X111030Y122530
X112300Y122520
X116300Y122520
X119000Y124000
X119280Y118440
X119280Y116440
X119280Y114440
X121520Y114440
X121520Y116440
X121520Y118440
X124860Y122030
X125860Y122030
X126860Y122030
X130170Y121970
X134170Y121970
X137280Y121980
X139280Y121980
X141280Y121980
X142560Y121950
X144560Y121950
X146560Y121950
X145890Y128060
X145890Y129060
X145890Y130060
X147110Y130080
X147110Y129080
X147110Y128080
X144630Y128050
X144630Y129050
X144630Y130050
X142130Y128080
X139390Y126000
X142130Y132080
X156840Y125770
X158840Y125770
X144330Y063020
X144330Y061020
X144330Y059020
X121440Y030560
X121440Y028560
X121440Y026560
X112390Y022810
X110390Y022810
X108390Y022810
X083440Y067270
X081440Y067270
X080160Y065810
X050660Y075780
X049630Y075770
X049630Y077770
X050660Y077780
X050660Y079780
X049630Y079770
X034380Y079770
X034390Y078780
X034390Y077800
X034360Y080780
X034360Y081770
X034360Y082780
X034360Y083780
X034360Y084770
X034360Y085780
X030360Y085780
X030360Y084770
X030360Y083780
X030360Y082780
X030360Y081770
X030360Y080780
X030380Y079770
X030390Y078780
X030390Y077800
X022330Y063830
X022330Y061830
X022310Y054870
X062190Y113480
X062190Y115480
X062190Y117480
X065190Y118730
X066190Y118730
X067190Y118730
X068190Y118730
X069190Y118730
X070190Y118730
X071190Y118730
X072190Y118730
X073190Y118730
X073190Y120730
X072190Y120730
X071190Y120730
X070190Y120730
X069190Y120730
X068190Y120730
X067190Y120730
X066190Y120730
X065190Y120730
X061450Y122280
X061450Y124280
X062420Y130080
X073020Y126810
X073920Y116470
X073920Y112470
T06
X005740Y007550
X005740Y008550
X005740Y009550
X077410Y038340
X077410Y039340
X077410Y040340
X077410Y041340
X080960Y068500
X080960Y069500
X080960Y070500
X096720Y083560
X097720Y083560
X107170Y097030
X108170Y097030
X124050Y111680
X124050Y112680
X124050Y113680
X123290Y122500
X117300Y122480
X132340Y095730
X133340Y095730
X134340Y095730
X082700Y099950
X081700Y099950
X102140Y012750
X102140Y006750
T07
X017220Y014870
X017220Y015870
X017220Y016870
X017220Y017870
X017220Y018870
X017220Y019870
X017220Y020870
X017220Y021870
X017220Y022870
X017220Y023870
X017220Y024870
X017220Y025870
X017220Y026870
X017220Y027870
X017220Y028870
X017220Y029870
X017220Y030870
X017220Y031870
X017220Y032870
X017220Y033870
X017220Y034870
X017220Y035870
X017220Y036870
X017220Y037870
X017220Y038870
X017220Y039870
X017220Y040870
X017220Y041870
X017220Y042870
X017220Y043870
X017220Y044870
X017220Y045870
X017220Y046870
X017220Y047870
X017220Y048870
X017220Y049870
X017220Y050870
X017220Y051870
X017220Y052870
X017220Y053880
X017220Y054870
X017220Y055880
X017220Y056880
X017220Y057870
X017220Y058880
X017220Y059880
X017220Y060880
X017220Y061880
X017220Y062880
X017220Y063880
X019220Y063880
X019220Y062880
X019220Y061880
X019220Y060880
X019220Y059880
X019220Y058880
X019220Y057870
X019220Y056880
X019220Y055880
X019220Y054870
X019220Y053880
X019220Y052870
X019220Y051870
X019220Y050870
X019220Y049870
X019220Y048870
X019220Y047870
X019220Y046870
X019220Y045870
X019220Y044870
X019220Y043870
X019220Y042870
X019220Y041870
X019220Y040870
X019220Y039870
X019220Y038870
X019220Y037870
X019220Y036870
X019220Y035870
X019220Y034870
X019220Y033870
X019220Y032870
X019220Y031870
X019220Y030870
X019220Y029870
X019220Y028870
X019220Y027870
X019220Y026870
X019220Y025870
X019220Y024870
X019220Y023870
X019220Y022870
X019220Y021870
X019220Y020870
X019220Y019870
X019220Y018870
X019220Y017870
X019220Y016870
X019220Y015870
X019220Y014870
X025280Y014870
X025280Y015870
X025280Y016870
X025280Y017870
X025280Y018870
X025280Y019870
X025280Y020870
X025280Y021870
X025280Y022870
X025280Y023870
X025280Y024870
X025280Y025870
X025280Y026870
X025280Y027870
X025280Y028870
X025280Y029870
X025280Y030870
X025280Y031870
X025280Y032870
X025280Y033870
X025280Y034870
X025280Y035870
X025280Y036870
X025280Y037870
X025280Y038870
X025280Y039870
X025280Y040870
X025280Y041870
X025280Y042870
X025280Y043870
X025280Y044870
X025280Y045870
X025280Y046870
X025280Y047870
X025280Y048870
X025280Y049870
X025280Y050870
X025280Y051870
X025280Y052870
X025280Y053880
X025280Y054870
X025280Y055880
X025280Y056880
X025280Y057870
X025280Y058880
X025280Y059880
X025280Y060880
X025280Y061880
X025280Y062880
X025280Y063880
X027280Y063880
X027280Y062880
X027280Y061880
X027280Y060880
X027280Y059880
X027280Y058880
X027280Y057870
X027280Y056880
X027280Y055880
X027280Y054870
X027280Y053880
X027280Y052870
X027280Y051870
X027280Y050870
X027280Y049870
X027280Y048870
X027280Y047870
X027280Y046870
X027280Y045870
X027280Y044870
X027280Y043870
X027280Y042870
X027280Y041870
X027280Y040870
X027280Y039870
X027280Y038870
X027280Y037870
X027280Y036870
X027280Y035870
X027280Y034870
X027280Y033870
X027280Y032870
X027280Y031870
X027280Y030870
X027280Y029870
X027280Y028870
X027280Y027870
X027280Y026870
X027280Y025870
X027280Y024870
X027280Y023870
X027280Y022870
X027280Y021870
X027280Y020870
X027280Y019870
X027280Y018870
X027280Y017870
X027280Y016870
X027280Y015870
X027280Y014870
X033230Y014890
X033230Y015890
X033230Y016890
X033230Y017890
X033230Y018890
X033230Y019890
X033230Y020890
X033230Y021890
X033230Y022890
X033230Y023890
X033230Y024890
X033230Y025890
X033230Y026890
X033230Y027890
X033230Y028890
X033230Y029890
X033230Y030890
X033230Y031890
X033230Y032890
X033230Y033890
X033230Y034890
X033230Y035890
X033230Y036890
X033230Y037890
X033230Y038890
X033230Y039890
X033230Y040890
X033230Y041890
X033230Y042890
X033230Y043890
X033230Y044890
X033230Y045890
X033230Y046890
X033230Y047890
X033230Y048890
X033230Y049890
X033230Y050890
X033230Y051890
X033230Y052890
X033230Y053890
X033230Y054890
X033230Y055890
X033230Y056890
X033230Y057890
X033230Y058890
X033230Y059890
X033230Y060890
X033230Y061890
X033230Y062890
X033230Y063890
X035230Y063890
X035230Y062890
X035230Y061890
X035230Y060890
X035230Y059890
X035230Y058890
X035230Y057890
X035230Y056890
X035230Y055890
X035230Y054890
X035230Y053890
X035230Y052890
X035230Y051890
X035230Y050890
X035230Y049890
X035230Y048890
X035230Y047890
X035230Y046890
X035230Y045890
X035230Y044890
X035230Y043890
X035230Y042890
X035230Y041890
X035230Y040890
X035230Y039890
X035230Y038890
X035230Y037890
X035230Y036890
X035230Y035890
X035230Y034890
X035230Y033890
X035230Y032890
X035230Y031890
X035230Y030890
X035230Y029890
X035230Y028890
X035230Y027890
X035230Y026890
X035230Y025890
X035230Y024890
X035230Y023890
X035230Y022890
X035230Y021890
X035230Y020890
X035230Y019890
X035230Y018890
X035230Y017890
X035230Y016890
X035230Y015890
X035230Y014890
X041270Y014890
X041270Y015890
X041270Y016890
X041270Y017890
X041270Y018890
X041270Y019890
X041270Y020890
X041270Y021890
X041270Y022890
X041270Y023890
X041270Y024890
X041270Y025890
X041270Y026890
X041270Y027890
X041270Y028890
X041270Y029890
X041270Y030890
X041270Y031890
X041270Y032890
X041270Y033890
X041270Y034890
X041270Y035890
X041270Y036890
X041270Y037890
X041270Y038890
X041270Y039890
X041270Y040890
X041270Y041890
X041270Y042890
X041270Y043890
X041270Y044890
X041270Y045890
X041270Y046890
X041270Y047890
X041270Y048890
X041270Y049890
X041270Y050890
X041270Y051890
X041270Y052890
X041270Y053890
X041270Y054890
X041270Y055890
X041270Y056890
X041270Y057890
X041270Y058890
X041270Y059890
X041270Y060890
X041270Y061890
X041270Y062890
X041270Y063890
X043270Y063890
X043270Y062890
X043270Y061890
X043270Y060890
X043270Y059890
X043270Y058890
X043270Y057890
X043270Y056890
X043270Y055890
X043270Y054890
X043270Y053890
X043270Y052890
X043270Y051890
X043270Y050890
X043270Y049890
X043270Y048890
X043270Y047890
X043270Y046890
X043270Y045890
X043270Y044890
X043270Y043890
X043270Y042890
X043270Y041890
X043270Y040890
X043270Y039890
X043270Y038890
X043270Y037890
X043270Y036890
X043270Y035890
X043270Y034890
X043270Y033890
X043270Y032890
X043270Y031890
X043270Y030890
X043270Y029890
X043270Y028890
X043270Y027890
X043270Y026890
X043270Y025890
X043270Y024890
X043270Y023890
X043270Y022890
X043270Y021890
X043270Y020890
X043270Y019890
X043270Y018890
X043270Y017890
X043270Y016890
X043270Y015890
X043270Y014890
X049280Y014870
X049280Y015870
X049280Y016870
X049280Y017870
X049280Y018870
X049280Y019870
X049280Y020870
X049280Y021870
X049280Y022870
X049280Y023870
X049280Y024870
X049280Y025870
X049280Y026870
X049280Y027870
X049280Y028870
X049280Y029870
X049280Y030870
X049280Y031870
X049280Y032870
X049280Y033870
X049280Y034870
X049280Y035870
X049280Y036870
X049280Y037870
X049280Y038870
X049280Y039870
X049280Y040870
X049280Y041870
X049280Y042870
X049280Y043870
X049280Y044870
X049280Y045870
X049280Y046870
X049280Y047870
X049280Y048870
X049280Y049870
X049280Y050870
X049280Y051870
X049280Y052870
X049280Y053880
X049280Y054870
X049280Y055880
X049280Y056880
X049280Y057870
X049280Y058880
X049280Y059880
X049280Y060880
X049280Y061880
X049280Y062880
X049280Y063880
X051280Y063880
X051280Y062880
X051280Y061880
X051280Y060880
X051280Y059880
X051280Y058880
X051280Y057870
X051280Y056880
X051280Y055880
X051280Y054870
X051280Y053880
X051280Y052870
X051280Y051870
X051280Y050870
X051280Y049870
X051280Y048870
X051280Y047870
X051280Y046870
X051280Y045870
X051280Y044870
X051280Y043870
X051280Y042870
X051280Y041870
X051280Y040870
X051280Y039870
X051280Y038870
X051280Y037870
X051280Y036870
X051280Y035870
X051280Y034870
X051280Y033870
X051280Y032870
X051280Y031870
X051280Y030870
X051280Y029870
X051280Y028870
X051280Y027870
X051280Y026870
X051280Y025870
X051280Y024870
X051280Y023870
X051280Y022870
X051280Y021870
X051280Y020870
X051280Y019870
X051280Y018870
X051280Y017870
X051280Y016870
X051280Y015870
X051280Y014870
X070720Y016980
X070720Y017980
X070720Y018980
X070720Y019980
X070720Y020980
X070720Y021980
X070720Y022980
X070720Y023980
X070720Y024980
X070720Y025980
X070720Y026980
X070720Y027980
X070720Y028980
X070720Y029980
X070720Y030980
X070720Y031980
X070720Y032980
X070720Y033980
X070720Y034980
X070720Y035980
X070720Y036980
X070720Y037980
X070720Y038980
X070720Y039980
X070720Y040980
X070720Y041980
X070720Y042980
X070720Y043980
X070720Y044980
X070720Y045980
X070720Y046980
X070720Y047980
X070720Y048980
X070720Y049980
X070720Y050980
X070720Y051980
X070720Y052980
X070720Y053980
X070720Y054980
X070720Y055980
X070720Y056980
X070720Y057980
X070720Y058980
X072720Y058980
X072720Y057980
X072720Y056980
X072720Y055980
X072720Y054980
X072720Y053980
X072720Y052980
X072720Y051980
X072720Y050980
X072720Y049980
X072720Y048980
X072720Y047980
X072720Y046980
X072720Y045980
X072720Y044980
X072720Y043980
X072720Y042980
X072720Y041980
X072720Y040980
X072720Y039980
X072720Y038980
X072720Y037980
X072720Y036980
X072720Y035980
X072720Y034980
X072720Y033980
X072720Y032980
X072720Y031980
X072720Y030980
X072720Y029980
X072720Y028980
X072720Y027980
X072720Y026980
X072720Y025980
X072720Y024980
X072720Y023980
X072720Y022980
X072720Y021980
X072720Y020980
X072720Y019980
X072720Y018980
X072720Y017980
X072720Y016980
X090950Y013050
X092920Y005330
X088920Y005330
X105310Y000780
X106310Y000780
X107310Y001780
X108310Y000780
X109310Y000780
X123090Y003950
X124140Y003950
X125240Y003950
X126330Y003950
X127420Y003950
X126900Y002900
X125810Y002920
X124720Y002900
X123640Y002900
X139130Y003950
X140180Y003950
X141270Y003950
X142360Y003950
X143450Y003950
X142930Y002900
X141840Y002920
X140750Y002900
X139670Y002900
X157300Y083720
X157300Y084720
X157300Y085720
X157300Y086720
X157300Y087720
X157300Y088720
X157300Y089720
X157300Y090720
X157300Y091720
X157300Y092720
X157300Y093720
X157300Y094720
X157300Y095720
X157300Y096720
X157300Y097720
X157300Y098720
X157300Y099720
X157300Y100720
X159300Y100720
X159300Y099720
X159300Y098720
X159300Y097720
X159300Y096720
X159300Y095720
X159300Y094720
X159300Y093720
X159300Y092720
X159300Y091720
X159300Y090720
X159300Y089720
X159300Y088720
X159300Y087720
X159300Y086720
X159300Y085720
X159300Y084720
X159300Y083720
X151630Y101950
X151630Y102950
X151630Y103950
X151630Y104950
X151630Y105950
X151630Y106950
X151630Y107950
X151630Y108950
X151630Y109950
X151630Y110950
X151630Y111950
X151630Y112950
X151630Y113950
X151630Y114950
X151630Y115950
X151630Y116950
X151630Y117950
X151630Y118950
X151630Y119950
X151630Y120950
X151630Y121950
X151630Y122950
X152130Y127560
X150890Y127560
X150880Y128860
X150890Y130060
X152090Y130060
X152110Y128870
X154110Y128870
X154090Y130060
X155410Y130060
X155410Y128870
X155440Y127560
X154130Y127560
X157440Y127560
X157410Y128870
X157410Y130060
X158890Y130080
X158890Y128780
X158890Y126780
X160890Y130080
X158990Y132080
X157900Y132080
X156810Y132080
X155720Y132080
X154630Y132080
X153540Y132080
X152450Y132080
X151360Y132080
X150270Y132080
X149180Y132080
X148090Y132080
X147000Y132080
X147530Y133120
X148610Y133120
X149700Y133120
X150790Y133120
X151870Y133120
X152960Y133120
X154050Y133120
X155130Y133120
X156220Y133120
X157300Y133120
X158390Y133120
X148890Y130060
X148880Y128860
X148890Y127560
X157300Y121770
X157300Y120770
X157300Y119770
X157300Y118770
X157300Y117770
X157300Y116770
X157300Y115770
X157300Y114770
X157300Y113770
X157300Y112770
X157300Y111770
X157300Y110770
X157300Y109770
X157300Y108770
X157300Y107770
X157300Y106770
X157300Y105770
X157300Y104770
X159300Y104770
X159300Y105770
X159300Y106770
X159300Y107770
X159300Y108770
X159300Y109770
X159300Y110770
X159300Y111770
X159300Y112770
X159300Y113770
X159300Y114770
X159300Y115770
X159300Y116770
X159300Y117770
X159300Y118770
X159300Y119770
X159300Y120770
X159300Y121770
X137010Y132100
X135920Y132100
X134830Y132100
X133740Y132100
X132650Y132100
X131560Y132100
X130470Y132100
X129380Y132100
X128290Y132100
X127200Y132100
X126110Y132100
X125020Y132100
X123920Y132100
X124450Y133140
X125540Y133140
X126630Y133140
X127710Y133140
X128800Y133140
X129890Y133140
X130970Y133140
X132060Y133140
X133150Y133140
X134230Y133140
X135320Y133140
X136410Y133140
X113900Y132080
X112810Y132080
X111720Y132080
X110630Y132080
X109530Y132080
X108440Y132080
X107350Y132080
X106260Y132080
X105170Y132080
X104080Y132080
X102990Y132080
X101900Y132080
X102430Y133120
X103510Y133120
X104600Y133120
X105690Y133120
X106770Y133120
X107860Y133120
X108950Y133120
X110030Y133120
X111120Y133120
X112210Y133120
X113290Y133120
X077490Y132080
X076400Y132080
X075310Y132080
X074220Y132080
X073130Y132080
X072040Y132080
X070940Y132080
X069850Y132080
X068760Y132080
X067670Y132080
X066580Y132080
X065490Y132080
X064400Y132080
X064930Y133120
X066020Y133120
X067100Y133120
X068190Y133120
X069280Y133120
X070360Y133120
X071450Y133120
X072540Y133120
X073620Y133120
X074710Y133120
X075800Y133120
X076880Y133120
X027280Y119780
X027280Y118780
X027280Y117780
X027280Y116780
X027280Y115780
X027280Y114780
X027280Y113780
X027280Y112780
X027280Y111780
X027280Y110780
X027280Y109780
X027280Y108780
X027280Y107780
X027280Y106780
X027280Y105780
X027280Y104780
X027280Y103780
X027280Y102780
X027280Y101780
X027280Y100780
X027280Y099780
X027280Y098780
X027280Y097780
X027280Y096780
X027280Y095780
X027280Y094780
X027280Y093780
X027280Y092780
X027280Y091780
X027280Y090780
X027280Y089780
X025280Y089780
X025280Y090780
X025280Y091780
X025280Y092780
X025280Y093780
X025280Y094780
X025280Y095780
X025280Y096780
X025280Y097780
X025280Y098780
X025280Y099780
X025280Y100780
X025280Y101780
X025280Y102780
X025280Y103780
X025280Y104780
X025280Y105780
X025280Y106780
X025280Y107780
X025280Y108780
X025280Y109780
X025280Y110780
X025280Y111780
X025280Y112780
X025280Y113780
X025280Y114780
X025280Y115780
X025280Y116780
X025280Y117780
X025280Y118780
X025280Y119780
X019220Y119780
X019220Y118780
X019220Y117780
X019220Y116780
X019220Y115780
X019220Y114780
X019220Y113780
X019220Y112780
X019220Y111780
X019220Y110780
X019220Y109780
X019220Y108780
X019220Y107780
X019220Y106780
X019220Y105780
X019220Y104780
X019220Y103780
X019220Y102780
X019220Y101780
X019220Y100780
X019220Y099780
X019220Y098780
X019220Y097780
X019220Y096780
X019220Y095780
X019220Y094780
X019220Y093780
X019220Y092780
X019220Y091780
X019220Y090780
X019220Y089780
X017220Y089780
X017220Y090780
X017220Y091780
X017220Y092780
X017220Y093780
X017220Y094780
X017220Y095780
X017220Y096780
X017220Y097780
X017220Y098780
X017220Y099780
X017220Y100780
X017220Y101780
X017220Y102780
X017220Y103780
X017220Y104780
X017220Y105780
X017220Y106780
X017220Y107780
X017220Y108780
X017220Y109780
X017220Y110780
X017220Y111780
X017220Y112780
X017220Y113780
X017220Y114780
X017220Y115780
X017220Y116780
X017220Y117780
X017220Y118780
X017220Y119780
X011220Y119780
X011220Y118780
X011220Y117780
X011220Y116780
X011220Y115780
X011220Y114780
X011220Y113780
X011220Y112780
X011220Y111780
X011220Y110780
X011220Y109780
X011220Y108780
X011220Y107780
X011220Y106780
X011220Y105780
X011220Y104780
X011220Y103780
X011220Y102780
X011220Y101780
X011220Y100780
X011220Y099780
X011220Y098780
X011220Y097780
X011220Y096780
X011220Y095780
X011220Y094780
X011220Y093780
X011220Y092780
X011220Y091780
X011220Y090780
X011220Y089780
X009220Y089780
X009220Y090780
X009220Y091780
X009220Y092780
X009220Y093780
X009220Y094780
X009220Y095780
X009220Y096780
X009220Y097780
X009220Y098780
X009220Y099780
X009220Y100780
X009220Y101780
X009220Y102780
X009220Y103780
X009220Y104780
X009220Y105780
X009220Y106780
X009220Y107780
X009220Y108780
X009220Y109780
X009220Y110780
X009220Y111780
X009220Y112780
X009220Y113780
X009220Y114780
X009220Y115780
X009220Y116780
X009220Y117780
X009220Y118780
X009220Y119780
X003220Y119780
X003220Y118780
X003220Y117780
X003220Y116780
X003220Y115780
X003220Y114780
X003220Y113780
X003220Y112780
X003220Y111780
X003220Y110780
X003220Y109780
X003220Y108780
X003220Y107780
X003220Y106780
X003220Y105780
X003220Y104780
X003220Y103780
X003220Y102780
X003220Y101780
X003220Y100780
X003220Y099780
X003220Y098780
X003220Y097780
X003220Y096780
X003220Y095780
X003220Y094780
X003220Y093780
X003220Y092780
X003220Y091780
X003220Y090780
X003220Y089780
X001220Y089780
X001220Y090780
X001220Y091780
X001220Y092780
X001220Y093780
X001220Y094780
X001220Y095780
X001220Y096780
X001220Y097780
X001220Y098780
X001220Y099780
X001220Y100780
X001220Y101780
X001220Y102780
X001220Y103780
X001220Y104780
X001220Y105780
X001220Y106780
X001220Y107780
X001220Y108780
X001220Y109780
X001220Y110780
X001220Y111780
X001220Y112780
X001220Y113780
X001220Y114780
X001220Y115780
X001220Y116780
X001220Y117780
X001220Y118780
X001220Y119780
X001220Y085780
X001220Y084780
X001220Y083780
X001220Y082780
X001220Y081780
X001220Y080780
X001220Y079780
X001220Y078780
X001220Y077780
X001220Y076780
X001220Y075780
X001220Y074780
X001220Y073780
X001220Y072780
X001220Y071780
X001220Y070780
X001220Y069780
X001220Y068780
X003220Y068780
X003220Y069780
X003220Y070780
X003220Y071780
X003220Y072780
X003220Y073780
X003220Y074780
X003220Y075780
X003220Y076780
X003220Y077780
X003220Y078780
X003220Y079780
X003220Y080780
X003220Y081780
X003220Y082780
X003220Y083780
X003220Y084780
X003220Y085780
X009220Y085780
X009220Y084780
X009220Y083780
X009220Y082780
X009220Y081780
X009220Y080780
X009220Y079780
X009220Y078780
X009220Y077780
X009220Y076780
X009220Y075780
X009220Y074780
X009220Y073780
X009220Y072780
X009220Y071780
X009220Y070780
X009220Y069780
X009220Y068780
X011220Y068780
X011220Y069780
X011220Y070780
X011220Y071780
X011220Y072780
X011220Y073780
X011220Y074780
X011220Y075780
X011220Y076780
X011220Y077780
X011220Y078780
X011220Y079780
X011220Y080780
X011220Y081780
X011220Y082780
X011220Y083780
X011220Y084780
X011220Y085780
X017220Y085780
X017220Y084780
X017220Y083780
X017220Y082780
X017220Y081780
X017220Y080780
X017220Y079780
X017220Y078780
X017220Y077780
X017220Y076780
X017220Y075780
X017220Y074780
X017220Y073780
X017220Y072780
X017220Y071780
X017220Y070780
X017220Y069780
X017220Y068780
X019220Y068780
X019220Y069780
X019220Y070780
X019220Y071780
X019220Y072780
X019220Y073780
X019220Y074780
X019220Y075780
X019220Y076780
X019220Y077780
X019220Y078780
X019220Y079780
X019220Y080780
X019220Y081780
X019220Y082780
X019220Y083780
X019220Y084780
X019220Y085780
X025280Y085780
X025280Y084780
X025280Y083780
X025280Y082780
X025280Y081780
X025280Y080780
X025280Y079780
X025280Y078780
X025280Y077780
X025280Y076780
X025280Y075780
X025280Y074780
X025280Y073780
X025280Y072780
X025280Y071780
X025280Y070780
X025280Y069780
X025280Y068780
X027280Y068780
X027280Y069780
X027280Y070780
X027280Y071780
X027280Y072780
X027280Y073780
X027280Y074780
X027280Y075780
X027280Y076780
X027280Y077780
X027280Y078780
X027280Y079780
X027280Y080780
X027280Y081780
X027280Y082780
X027280Y083780
X027280Y084780
X027280Y085780
X060660Y076780
X062170Y076790
X062170Y072790
X060660Y072780
T08
X051560Y006030
X051580Y008080
T09
X104310Y004780
X105310Y005780
X107310Y004780
X109310Y005780
X110310Y004780
T10
X077830Y069640
X077830Y071200
X077830Y072750
X077810Y074310
X077810Y075880
X077830Y077420
X077830Y079000
X077830Y080550
X077830Y082110
X077830Y083660
X077840Y085200
X077860Y086780
X077860Y088340
X077860Y089860
T11
X082330Y133230
X083830Y134800
X085330Y133300
X088110Y133230
X089610Y134800
X091110Y133300
X093860Y133230
X095360Y134800
X096860Y133300
T12
X120240Y003410
X130120Y003410
X136270Y003410
X146150Y003410
X144270Y132580
X139660Y132600
X121190Y132600
X116730Y132580
X099170Y132580
X080140Y132580
X061670Y132580
X161830Y132580
T13
X001860Y001920
X076920Y001980
X105200Y058090
X101250Y062030
X158280Y001810
X002800Y127360
T14
X006110Y003050
X035830Y003050
X081910Y003060
X059280Y065060
X006050Y065160
X006220Y127110
X047530Y127000
X161980Y126970
X161910Y076590
X161770Y002950
M30
